<svg width="2132" height="769" viewBox="0 0 2132 769" fill="none" xmlns="http://www.w3.org/2000/svg">
<path d="M963.548 161.8H1267.35V241.16H1057.79V347.8H1256.19V425.92H1057.79V602H963.548V161.8ZM1419.57 602C1361.7 602 1332.77 573.067 1332.77 515.2V161.8H1425.77V505.28C1425.77 514.787 1427.83 521.813 1431.97 526.36C1436.51 530.493 1443.33 532.56 1452.43 532.56H1474.75V602H1419.57ZM1640.48 609.44C1606.17 609.44 1579.31 598.487 1559.88 576.58C1540.87 554.673 1531.36 523.673 1531.36 483.58V269.68H1624.36V461.88C1624.36 487.507 1628.29 506.313 1636.14 518.3C1643.99 529.873 1656.39 535.66 1673.34 535.66C1692.77 535.66 1707.65 529.253 1717.98 516.44C1728.31 503.213 1733.48 483.58 1733.48 457.54V269.68H1826.48V602H1741.54L1740.3 548.68C1722.94 589.187 1689.67 609.44 1640.48 609.44ZM1907.96 269.68H1996L1997.86 336.64C2004.48 313.08 2014.19 296.133 2027 285.8C2039.82 275.053 2056.56 269.68 2077.22 269.68H2107.6V346.56H2077.22C2050.77 346.56 2031.34 351.933 2018.94 362.68C2006.96 373.427 2000.96 390.993 2000.96 415.38V602H1907.96V269.68Z" fill="white"/>
<path d="M25.832 258.336C206.665 439.169 464.999 439.169 645.832 258.336" stroke="white" stroke-width="51.6667"/>
<line y1="568.335" x2="671.667" y2="568.335" stroke="white" stroke-width="51.6667"/>
</svg>
