<svg width="1853" height="769" viewBox="0 0 1853 769" fill="none" xmlns="http://www.w3.org/2000/svg">
<g clip-path="url(#clip0_6018_37983)">
<path d="M542.292 342.511C504.642 335.314 498.624 342.505 497.984 343.506L481.637 346.385C495.959 335.731 497.973 324.331 496.293 311.99C492.782 290.46 470.466 297.063 475.11 312.549C481.487 333.817 471.14 344.69 463.595 349.563L423.565 356.614L436.909 342.473C453.844 329.433 439.513 302.696 419.1 309.899C436.603 296.309 420.698 269.389 400.464 277.679L380.767 282.333L406.548 251.642C414.247 247.342 429.521 242.663 445.508 259.595C456.611 271.354 473.494 255.351 456.583 241.549C446.314 233.618 435.36 229.868 418.403 237.529L429.691 224.092L430.123 224.454C442.022 217.5 449.525 197.685 453.048 185.995C454.313 181.8 451.045 179.333 447.161 181.498C413.687 200.161 413.705 209.533 413.859 210.71L403.189 223.412C407.306 206.055 401.512 196.029 392.284 187.654C375.74 173.415 362.894 192.802 376.416 201.683C394.987 213.88 394.057 228.854 391.413 237.432L365.286 268.535L366.408 249.135C371.01 228.29 342.762 216.967 331.825 235.628C336.431 213.963 306.988 203.552 296.795 222.9L284.702 239.112V199.048C287.832 190.811 296.522 177.419 319.664 180.124C335.737 182.003 338.372 158.904 316.536 159.189C303.526 159.801 292.782 163.771 284.702 180.625V163.083H285.265C289.906 150.116 282.903 130.12 278.08 118.903C276.349 114.877 272.258 115.085 270.676 119.237C257.044 155.025 263.088 162.195 263.963 162.998V179.579C255.947 163.639 245.057 159.679 232.599 159.189C210.763 158.904 213.397 182.003 229.471 180.124C251.546 177.544 260.47 189.611 263.963 197.88V238.482L252.339 222.9C242.424 203.977 213.577 213.431 217.133 234.762C206.774 215.185 177.472 226.156 182.131 247.501L183.299 267.685L157.518 236.994C154.615 228.674 152.655 212.836 172.124 200.049C185.645 191.168 172.8 171.781 156.256 186.021C146.654 194.745 141.054 204.87 145.663 222.881L134.375 209.444L134.807 209.082C130.018 196.169 111.785 185.348 100.873 179.851C96.9563 177.879 93.9565 180.665 95.4168 184.861C108.002 221.029 117.245 222.641 118.434 222.694L129.103 235.396C112.706 228.333 101.815 232.291 91.956 239.915C75.0449 253.717 91.9279 269.721 103.032 257.961C118.282 241.81 132.883 245.324 140.88 249.415L167.007 280.519L148.076 276.046C128.325 267.899 112.256 293.722 128.755 307.722C108.195 299.427 92.8188 326.584 110.124 339.97L124.007 354.682L84.5082 347.725C76.9306 343.215 65.2369 332.342 71.9227 310.046C76.5662 294.561 54.25 287.957 50.7398 309.488C49.0836 322.392 51.1319 333.651 66.3447 344.526L49.0512 341.48L49.1491 340.926C37.1704 334.109 16.2405 337.526 4.344 340.323C0.0747322 341.326 -0.430191 345.387 3.3885 347.664C36.3266 367.302 44.4296 362.583 45.3643 361.866L61.7128 364.746C44.6058 369.864 38.8109 379.889 36.1638 392.059C32.0908 413.491 55.3221 414.91 56.2607 398.772C57.5499 376.608 70.9964 369.925 79.755 367.924L119.785 374.974L102.404 383.703C82.066 390.151 86.3071 420.116 107.912 420.395C86.8967 427.316 92.6403 457.899 114.466 457.041L134.568 459.397L99.8341 479.429C91.1272 480.84 75.172 480.019 65.9462 458.646C59.5387 443.802 38.1945 453.072 49.3603 471.82C56.2946 482.781 65.304 490.047 83.8613 488.641L68.6534 497.411L68.3716 496.924C54.8088 499.393 40.9745 515.45 33.6609 525.23C31.0361 528.74 33.2622 532.175 37.6529 531.468C75.496 525.367 78.6897 516.554 78.9485 515.395L93.3239 507.104C83.5127 522.009 85.5242 533.409 91.3281 544.432C101.999 563.465 120.709 549.635 111.043 536.67C97.7677 518.864 103.768 505.11 109.19 497.954L144.392 477.653L136.694 495.499C125.263 513.497 147.794 533.729 164.524 520.07C152.879 538.866 176.959 558.606 193.126 543.934L210.041 532.832L196.323 570.479C190.562 577.151 177.811 586.766 156.991 576.317C142.53 569.06 132.145 589.867 152.762 597.059C165.196 600.929 176.652 600.869 190.015 587.792L184.009 604.275L183.48 604.083C174.679 614.683 174.414 635.866 175.105 648.054C175.353 652.428 179.269 653.63 182.176 650.269C207.24 621.298 204.016 612.495 203.468 611.441L209.145 595.86C211.221 613.577 220.098 621.018 231.637 625.736C252.059 633.464 257.492 610.857 241.745 607.132C220.117 602.015 215.863 587.626 215.411 578.663L229.314 540.509L234.901 559.123C237.727 580.249 268.005 581.281 272.031 560.076C275.205 581.951 306.355 581.611 309.298 559.992L315.112 540.626L328.829 578.273C328.709 587.083 325.128 602.636 302.455 608.001C286.708 611.726 292.141 634.333 312.563 626.604C324.573 621.686 333.301 614.085 335.137 595.585L341.144 612.069L340.614 612.262C340.693 626.032 354.121 642.43 362.493 651.323C365.498 654.515 369.271 652.921 369.336 648.479C369.893 610.194 361.759 605.52 360.661 605.064L354.984 589.483C367.974 601.723 379.563 601.724 391.438 597.928C412.055 590.736 401.67 569.929 387.209 577.186C367.348 587.153 354.831 578.862 348.717 572.286L334.815 534.132L351.073 544.803C366.833 559.173 390.69 540.523 380.131 521.693C396.639 536.412 420.281 516.151 408.624 497.7L400.616 479.132L435.35 499.164C440.927 505.991 448.192 520.204 434.275 538.871C424.61 551.836 443.319 565.665 453.99 546.632C459.964 535.072 461.895 523.792 451.323 508.375L466.531 517.146L466.249 517.634C475.171 528.132 496.009 532.071 508.145 533.508C512.501 534.023 514.366 530.38 511.557 526.936C487.346 497.249 478.108 498.893 476.974 499.248L462.599 490.958C480.426 491.993 489.304 484.553 495.959 474.02C507.124 455.273 485.78 446.002 479.372 460.846C470.572 481.234 455.648 482.92 446.732 481.808L411.531 461.506L430.852 459.241C452.171 460.131 458.446 430.525 438.24 422.881C460.358 423.557 465.431 392.856 444.628 386.206L426.545 377.124L466.044 370.167C474.709 371.816 489.42 378.039 490.771 401.274C491.71 417.412 514.941 415.993 510.868 394.562C508.104 381.892 502.127 371.987 484.207 366.968L501.501 363.922L501.598 364.476C515.189 366.789 533.686 356.428 543.908 349.736C547.576 347.334 546.661 343.346 542.292 342.511ZM390.895 286.79C396.699 284.617 403.643 283.531 408.769 287.549C409.754 288.088 410.574 288.883 411.142 289.852C411.709 290.82 412.003 291.924 411.991 293.045C411.979 294.167 411.663 295.265 411.075 296.221C410.487 297.177 409.65 297.955 408.654 298.473C411.469 285.919 385.424 288.748 390.179 301.433C391.051 303.745 392.37 305.864 394.061 307.667C395.752 309.471 397.782 310.924 400.035 311.943C402.289 312.963 404.721 313.529 407.193 313.61C409.666 313.691 412.13 313.285 414.445 312.414C412.406 313.945 410.698 315.872 409.424 318.079C408.15 320.286 407.336 322.727 407.03 325.257C406.724 327.786 406.934 330.351 407.646 332.798C408.358 335.244 409.558 337.521 411.173 339.493C419.792 349.949 435.268 328.833 422.976 324.991C423.923 324.388 425.016 324.053 426.139 324.022C427.262 323.992 428.372 324.267 429.35 324.818C430.329 325.368 431.139 326.174 431.694 327.149C432.25 328.124 432.53 329.232 432.504 330.354C433.425 336.796 429.011 342.261 424.226 346.195L410.401 358.932L396.395 361.399C398.083 358.349 398.889 354.891 398.725 351.41C398.561 347.929 397.432 344.563 395.465 341.685C393.498 338.807 390.769 336.531 387.583 335.111C384.398 333.691 380.88 333.183 377.422 333.642C379.355 330.857 380.499 327.601 380.733 324.219C380.967 320.837 380.282 317.455 378.751 314.43C377.22 311.405 374.899 308.849 372.034 307.033C369.169 305.217 365.865 304.207 362.473 304.111L372.11 292.639L390.895 286.79ZM385.746 392.582C395.647 394.968 390.689 406.969 379.944 408.982L344.77 391.528L369.714 387.134C357.733 411.061 393.452 405.948 385.746 392.582ZM359.415 464.776C365.464 472.961 353.943 478.971 344.417 473.614L328.704 437.659L350.64 450.31C326.064 460.946 356.718 479.964 359.415 464.776ZM339.068 490.224C338.709 491.287 338.066 492.232 337.211 492.959C336.355 493.685 335.317 494.166 334.209 494.349C333.101 494.532 331.964 494.411 330.92 493.999C329.875 493.587 328.962 492.899 328.279 492.009C343.771 491.97 330.208 458.414 315.454 480.993L306.418 456.195L339.313 478.012C340.144 479.948 340.552 482.039 340.51 484.145C340.468 486.251 339.976 488.323 339.068 490.224ZM292.788 503.174C292.154 513.328 279.462 510.535 275.612 500.314L286.712 462.682L295.374 486.457C269.704 478.826 280.948 513.076 292.788 503.174ZM258.084 486.582C254.932 486.036 251.693 486.307 248.676 487.37L257.712 462.571L268.871 500.406C265.538 510.939 252.125 514.667 251.412 504.043C260.889 512.755 271.458 488.81 258.084 486.582ZM229.779 478.663C215.024 456.335 201.599 489.792 217.04 489.808C210.02 497.18 202.095 486.89 205.723 476.589L238.441 454.888L229.779 478.663ZM167.639 354.096C159.152 348.472 167.92 338.888 178.705 340.667L205.782 369.086L180.838 364.693C200.289 346.302 164.973 338.903 167.639 354.096ZM178.045 323.232C178.019 322.11 178.299 321.003 178.854 320.027C179.41 319.052 180.22 318.246 181.198 317.695C182.177 317.145 183.287 316.87 184.41 316.9C185.532 316.931 186.626 317.266 187.573 317.869C173.028 323.198 197.263 350.097 203.396 323.838L220.378 344.054L181.997 334.791C180.553 333.256 179.453 331.431 178.772 329.437C178.09 327.444 177.842 325.328 178.045 323.232ZM217.1 295.251C214.219 285.494 227.102 283.782 234.219 292.071L236.674 331.225L220.393 311.844C247.129 310.244 224.834 281.902 217.1 295.251ZM255.392 298.986C258.541 298.423 261.492 297.061 263.963 295.032V321.422L240.522 289.681C240.048 278.644 251.375 270.559 255.683 280.299C243.794 275.35 242.061 301.462 255.392 298.986ZM292.856 281.932C296.928 272.607 307.899 279.568 308.017 290.487L284.702 322.058V296.757C306.211 312.698 307.373 276.672 292.856 281.932ZM347.657 334.873C356.276 345.329 371.751 324.213 359.459 320.371C368.579 315.842 372.504 328.219 365.569 336.659L327.393 345.873L343.673 326.491C344.274 329.575 345.644 332.458 347.657 334.873ZM380.901 355.729C383.553 340.482 348.115 347.998 367.814 366.433L341.796 371.016L369.018 342.444C379.817 340.062 389.755 349.8 380.901 355.729ZM291.938 416.455L316.801 430.794L333.635 466.061L301.733 443.337L291.938 416.455ZM243.142 441.987L211.297 464.67L228.16 429.341L252.962 415.038L243.142 441.987ZM247.591 376.45L219.317 371.47L191.424 344.082L229.183 354.536L247.591 376.45ZM318.558 356.39L356.249 345.955L328.306 373.392L300.103 378.359L318.558 356.39ZM243.246 396.72L218.383 411.059L179.391 407.989L215.043 391.753L243.246 396.72ZM302.961 398.892L331.235 393.912L366.823 410.119L327.762 413.195L302.961 398.892ZM332.034 295.251C324.255 281.868 301.943 310.38 328.897 311.854L311.915 332.07L314.382 292.705C321.122 283.945 335.002 285.024 332.034 295.251ZM284.702 335.787L306.86 303.592L303.11 342.552L284.702 364.466V335.787ZM245.509 341.742L241.765 302.852L263.963 335.105V363.711L245.509 341.742ZM159.573 390.381C151.86 403.802 187.735 408.847 175.536 384.794L201.554 389.376L166.191 406.925C155.227 405.474 149.222 392.927 159.573 390.381ZM183.671 421.337C179.152 408.567 157.38 423.122 167.614 430.932C157.494 432.073 158.043 419.102 167.451 413.539L206.48 417.924L184.545 430.574C185.036 427.471 184.736 424.294 183.671 421.337ZM184.785 463.907C187.513 479.141 218.241 459.971 193.418 449.378L216.298 436.182L200.5 472.331C191.111 478.23 178.531 472.579 184.785 463.907ZM262.397 449.713L272.191 422.832L282.011 449.781L272.213 487.604L262.397 449.713ZM379.418 433.435C391.261 423.458 359.277 406.461 362.504 433.231L339.625 420.036L378.863 415.628C388.67 420.737 390.016 434.578 379.418 433.435ZM295.329 236.023C298.376 230.632 302.997 225.341 309.508 225.129C310.61 224.908 311.75 224.991 312.808 225.369C313.866 225.746 314.801 226.403 315.514 227.27C316.227 228.137 316.691 229.181 316.856 230.291C317.021 231.4 316.88 232.534 316.45 233.571C310.528 222.146 292.397 241.036 304.202 247.7C308.556 250.141 313.699 250.766 318.512 249.438C323.325 248.111 327.417 244.937 329.899 240.609C329.324 243.083 329.255 245.648 329.698 248.149C330.141 250.65 331.086 253.036 332.475 255.163C333.865 257.29 335.671 259.114 337.785 260.525C339.899 261.936 342.277 262.906 344.776 263.376C358.107 265.851 356.374 239.739 344.485 244.688C344.823 243.618 345.445 242.66 346.285 241.915C347.126 241.171 348.153 240.669 349.257 240.463C350.361 240.256 351.5 240.353 352.553 240.744C353.606 241.134 354.533 241.803 355.235 242.678C360.086 247.022 360.222 254.042 359.087 260.129L356.694 278.763L347.566 289.628C346.891 286.21 345.28 283.046 342.911 280.488C340.543 277.93 337.511 276.078 334.152 275.139C330.793 274.199 327.239 274.209 323.885 275.167C320.532 276.126 317.51 277.994 315.156 280.565C314.845 277.19 313.626 273.961 311.629 271.22C309.632 268.479 306.931 266.328 303.81 264.995C300.69 263.661 297.267 263.195 293.903 263.645C290.54 264.096 287.36 265.445 284.702 267.552V252.566L295.329 236.023ZM189.452 258.495C188.318 252.409 188.453 245.389 193.304 241.045C194.006 240.169 194.933 239.5 195.986 239.11C197.039 238.72 198.178 238.623 199.282 238.829C200.386 239.035 201.413 239.538 202.254 240.282C203.094 241.026 203.717 241.985 204.054 243.055C192.166 238.105 190.432 264.218 203.763 261.742C206.195 261.287 208.513 260.357 210.584 259.006C212.656 257.656 214.441 255.911 215.838 253.872C217.234 251.832 218.215 249.538 218.724 247.119C219.233 244.701 219.26 242.207 218.803 239.778C219.959 242.049 221.562 244.064 223.516 245.701C225.471 247.338 227.737 248.563 230.177 249.303C232.618 250.043 235.183 250.282 237.719 250.007C240.254 249.731 242.708 248.946 244.932 247.699C256.737 241.036 238.607 222.146 232.684 233.57C232.254 232.534 232.114 231.4 232.279 230.291C232.444 229.181 232.908 228.137 233.62 227.27C234.333 226.403 235.269 225.745 236.326 225.368C237.384 224.991 238.525 224.908 239.626 225.129C246.138 225.341 250.759 230.632 253.806 236.023L263.963 251.834V266.041C261.249 263.851 257.98 262.457 254.52 262.014C251.06 261.571 247.544 262.097 244.365 263.532C241.186 264.968 238.469 267.257 236.516 270.144C234.563 273.032 233.451 276.404 233.303 279.886C230.893 277.5 227.881 275.809 224.588 274.992C221.295 274.174 217.841 274.261 214.593 275.242C211.345 276.223 208.422 278.062 206.134 280.565C203.846 283.068 202.277 286.143 201.593 289.463L191.956 277.991L189.452 258.495ZM122.807 343.692C118.021 339.758 113.607 334.293 114.528 327.851C114.503 326.729 114.782 325.622 115.338 324.647C115.893 323.672 116.704 322.865 117.682 322.315C118.661 321.764 119.771 321.489 120.893 321.52C122.016 321.55 123.109 321.885 124.056 322.488C111.764 326.33 127.24 347.446 135.859 336.99C139.023 333.131 140.532 328.18 140.058 323.215C139.585 318.25 137.167 313.673 133.331 310.48C135.67 311.476 138.187 311.988 140.73 311.987C143.272 311.986 145.788 311.471 148.127 310.473C150.465 309.475 152.577 308.015 154.335 306.181C156.094 304.346 157.463 302.175 158.36 299.798C163.115 287.115 137.07 284.285 139.885 296.839C138.889 296.322 138.052 295.543 137.464 294.587C136.877 293.631 136.56 292.534 136.548 291.412C136.536 290.29 136.83 289.186 137.398 288.218C137.965 287.25 138.786 286.454 139.771 285.915C144.896 281.898 151.84 282.984 157.644 285.156L175.599 290.747L184.726 301.612C181.239 301.683 177.84 302.719 174.906 304.604C171.973 306.49 169.621 309.151 168.112 312.293C166.603 315.434 165.995 318.932 166.357 322.397C166.719 325.862 168.037 329.16 170.163 331.922C166.781 331.641 163.386 332.279 160.337 333.768C157.288 335.257 154.699 337.541 152.842 340.379C150.986 343.217 149.932 346.503 149.792 349.89C149.651 353.277 150.43 356.639 152.045 359.621L137.27 357.018L122.807 343.692ZM126.577 451.748C120.379 451.807 113.482 450.455 110.041 444.929C109.3 444.086 108.802 443.058 108.6 441.954C108.398 440.851 108.5 439.713 108.895 438.663C109.29 437.612 109.963 436.689 110.843 435.992C111.723 435.294 112.776 434.849 113.889 434.702C106.946 445.538 132.388 451.777 132.263 438.233C132.204 433.282 130.203 428.551 126.689 425.057C123.175 421.564 118.429 419.588 113.472 419.553C115.881 418.783 118.11 417.539 120.03 415.894C121.949 414.249 123.518 412.236 124.646 409.975C125.773 407.714 126.436 405.25 126.594 402.728C126.752 400.207 126.403 397.68 125.567 395.296C121.048 382.526 99.2756 397.081 109.51 404.891C108.414 405.134 107.272 405.075 106.207 404.72C105.141 404.365 104.192 403.728 103.461 402.876C102.73 402.024 102.245 400.99 102.057 399.884C101.869 398.778 101.985 397.641 102.393 396.596C103.734 390.228 109.752 386.6 115.596 384.539L132.949 377.292L146.932 379.756C144.306 382.049 142.368 385.025 141.335 388.353C140.301 391.681 140.212 395.23 141.077 398.605C141.942 401.98 143.728 405.05 146.235 407.472C148.743 409.894 151.873 411.574 155.28 412.325C152.509 414.282 150.319 416.951 148.942 420.048C147.564 423.146 147.049 426.558 147.453 429.924C147.856 433.29 149.162 436.484 151.232 439.17C153.303 441.856 156.061 443.933 159.216 445.182L146.232 452.67L126.577 451.748ZM198.998 532.104C194.288 536.128 188.134 539.521 181.943 537.496C180.832 537.327 179.789 536.859 178.924 536.143C178.059 535.428 177.406 534.491 177.033 533.433C176.659 532.374 176.581 531.235 176.806 530.136C177.031 529.036 177.551 528.019 178.31 527.192C179.963 539.951 203.469 528.394 194.657 518.099C191.426 514.344 186.848 512.005 181.909 511.585C176.969 511.165 172.062 512.698 168.242 515.855C169.592 513.718 170.499 511.334 170.911 508.841C171.322 506.349 171.229 503.799 170.638 501.343C170.047 498.887 168.968 496.574 167.467 494.541C165.966 492.508 164.072 490.796 161.897 489.507C150.219 482.626 142.906 507.756 155.772 507.167C155.089 508.057 154.176 508.745 153.131 509.157C152.087 509.569 150.95 509.69 149.842 509.507C148.734 509.324 147.696 508.843 146.841 508.117C145.985 507.39 145.343 506.445 144.983 505.382C141.911 499.643 144.188 493 147.338 487.669L155.967 470.976L168.264 463.884C167.729 467.327 168.159 470.851 169.509 474.064C170.859 477.277 173.074 480.053 175.909 482.083C178.743 484.113 182.086 485.318 185.566 485.563C189.045 485.809 192.525 485.085 195.617 483.473C194.754 486.752 194.794 490.202 195.732 493.46C196.67 496.718 198.471 499.662 200.946 501.981C203.421 504.301 206.477 505.909 209.791 506.637C213.105 507.365 216.555 507.185 219.775 506.116L214.648 520.189L198.998 532.104ZM306.184 547.159C305.166 553.266 302.635 559.816 296.589 562.241C295.63 562.824 294.529 563.135 293.406 563.143C292.283 563.15 291.179 562.851 290.213 562.28C289.246 561.709 288.453 560.887 287.918 559.9C287.383 558.914 287.126 557.8 287.175 556.68C296.652 565.392 307.222 541.446 293.847 539.218C288.955 538.416 283.943 539.563 279.889 542.413C275.835 545.264 273.063 549.589 272.168 554.46C271.827 551.957 270.987 549.547 269.699 547.373C268.41 545.2 266.699 543.306 264.665 541.804C262.632 540.302 260.317 539.223 257.859 538.63C255.401 538.036 252.849 537.941 250.353 538.349C236.979 540.577 247.548 564.523 257.025 555.81C257.074 556.931 256.817 558.044 256.282 559.031C255.748 560.017 254.954 560.84 253.988 561.411C253.021 561.982 251.917 562.28 250.794 562.273C249.671 562.266 248.571 561.955 247.611 561.371C241.565 558.947 239.034 552.396 238.017 546.29L233.886 527.962L238.742 514.633C240.547 517.614 243.145 520.037 246.246 521.632C249.347 523.227 252.831 523.931 256.309 523.666C259.787 523.401 263.123 522.177 265.946 520.131C268.77 518.085 270.97 515.297 272.301 512.076C273.75 515.142 276 517.76 278.815 519.653C281.63 521.546 284.905 522.645 288.293 522.833C291.681 523.02 295.057 522.29 298.065 520.72C301.072 519.149 303.599 516.797 305.378 513.91L310.506 527.983L306.184 547.159ZM397.981 489.869C401.131 495.201 403.407 501.844 400.336 507.583C399.976 508.646 399.334 509.591 398.478 510.318C397.622 511.044 396.585 511.525 395.477 511.708C394.369 511.891 393.232 511.77 392.187 511.358C391.143 510.946 390.23 510.258 389.546 509.368C402.412 509.957 395.1 484.827 383.42 491.708C379.157 494.234 376.056 498.331 374.784 503.117C373.513 507.903 374.172 512.997 376.62 517.303C374.749 515.604 372.555 514.297 370.169 513.46C367.783 512.622 365.254 512.271 362.729 512.426C360.205 512.582 357.738 513.24 355.473 514.364C353.208 515.488 351.192 517.054 349.543 518.969C340.731 529.263 364.236 540.82 365.89 528.061C366.649 528.888 367.169 529.906 367.394 531.005C367.619 532.104 367.541 533.244 367.168 534.302C366.794 535.36 366.14 536.297 365.276 537.013C364.411 537.729 363.367 538.196 362.257 538.365C356.065 540.39 349.911 536.997 345.202 532.973L330.244 521.585L325.387 508.257C328.689 509.382 332.238 509.57 335.639 508.8C339.041 508.03 342.163 506.333 344.657 503.897C347.15 501.46 348.919 498.381 349.765 495.001C350.611 491.621 350.502 488.072 349.45 484.75C352.532 486.169 355.941 486.729 359.315 486.372C362.69 486.015 365.905 484.754 368.622 482.722C371.338 480.69 373.455 477.963 374.748 474.829C376.041 471.695 376.463 468.271 375.968 464.917L388.952 472.405L397.981 489.869ZM431.436 387.041C437.28 389.103 443.298 392.73 444.639 399.099C445.047 400.144 445.164 401.28 444.975 402.387C444.787 403.493 444.302 404.527 443.571 405.379C442.84 406.231 441.891 406.868 440.826 407.223C439.76 407.578 438.618 407.637 437.522 407.394C447.757 399.584 425.984 385.029 421.465 397.799C419.825 402.472 420.086 407.601 422.192 412.084C424.297 416.567 428.08 420.046 432.726 421.772C430.2 421.673 427.678 422.08 425.312 422.97C422.945 423.861 420.781 425.215 418.947 426.955C417.114 428.695 415.647 430.784 414.636 433.099C413.624 435.414 413.087 437.908 413.056 440.434C412.93 453.978 438.373 447.739 431.429 436.903C432.543 437.05 433.596 437.495 434.475 438.193C435.355 438.89 436.029 439.813 436.424 440.864C436.819 441.914 436.921 443.051 436.719 444.155C436.517 445.259 436.019 446.287 435.277 447.129C431.837 452.656 424.94 454.008 418.742 453.949L399.955 454.83L387.658 447.738C390.911 446.48 393.751 444.346 395.862 441.572C397.972 438.798 399.271 435.493 399.614 432.026C399.957 428.558 399.33 425.064 397.803 421.931C396.276 418.799 393.909 416.15 390.966 414.281C394.239 413.388 397.211 411.629 399.566 409.189C401.921 406.748 403.573 403.718 404.347 400.417C405.12 397.117 404.987 393.669 403.961 390.438C402.935 387.207 401.054 384.312 398.517 382.061L413.282 379.46L431.436 387.041Z" fill="white"/>
</g>
<path d="M684.068 161.8H987.868V241.16H778.308V347.8H976.708V425.92H778.308V602H684.068V161.8ZM1140.09 602C1082.22 602 1053.29 573.067 1053.29 515.2V161.8H1146.29V505.28C1146.29 514.787 1148.35 521.813 1152.49 526.36C1157.03 530.493 1163.85 532.56 1172.95 532.56H1195.27V602H1140.09ZM1361 609.44C1326.69 609.44 1299.83 598.487 1280.4 576.58C1261.39 554.673 1251.88 523.673 1251.88 483.58V269.68H1344.88V461.88C1344.88 487.507 1348.81 506.313 1356.66 518.3C1364.51 529.873 1376.91 535.66 1393.86 535.66C1413.29 535.66 1428.17 529.253 1438.5 516.44C1448.83 503.213 1454 483.58 1454 457.54V269.68H1547V602H1462.06L1460.82 548.68C1443.46 589.187 1410.19 609.44 1361 609.44ZM1628.48 269.68H1716.52L1718.38 336.64C1725 313.08 1734.71 296.133 1747.52 285.8C1760.34 275.053 1777.08 269.68 1797.74 269.68H1828.12V346.56H1797.74C1771.29 346.56 1751.86 351.933 1739.46 362.68C1727.48 373.427 1721.48 390.993 1721.48 415.38V602H1628.48V269.68Z" fill="white"/>
<defs>
<clipPath id="clip0_6018_37983">
<rect width="545.38" height="537" fill="white" transform="translate(0.808594 116)"/>
</clipPath>
</defs>
</svg>
