<svg width="2087" height="769" viewBox="0 0 2087 769" fill="none" xmlns="http://www.w3.org/2000/svg">
<g clip-path="url(#clip0_6018_37983)">
<path d="M775.421 324.37C721.504 314.065 712.886 324.363 711.97 325.795L688.561 329.919C709.071 314.661 711.954 298.336 709.548 280.664C704.521 249.832 672.563 259.288 679.213 281.463C688.346 311.92 673.528 327.491 662.723 334.469L605.4 344.566L624.508 324.316C648.76 305.643 628.238 267.355 599.006 277.67C624.071 258.208 601.294 219.658 572.318 231.53L544.112 238.194L581.032 194.243C592.056 188.085 613.929 181.385 636.823 205.632C652.723 222.472 676.9 199.554 652.683 179.79C637.977 168.432 622.291 163.063 598.008 174.033L614.172 154.791L614.79 155.309C631.831 145.35 642.575 116.975 647.62 100.235C649.431 94.2278 644.751 90.695 639.19 93.7955C591.255 120.521 591.281 133.942 591.501 135.628L576.221 153.818C582.116 128.961 573.819 114.604 560.605 102.61C536.913 82.2195 518.517 109.983 537.881 122.7C564.475 140.167 563.144 161.61 559.357 173.894L521.942 218.435L523.55 190.653C530.14 160.803 489.688 144.588 474.025 171.311C480.621 140.285 438.458 125.378 423.862 153.084L406.544 176.3V118.927C411.026 107.131 423.47 87.9537 456.61 91.8279C479.628 94.5185 483.401 61.4393 452.131 61.8483C433.5 62.7242 418.114 68.4092 406.544 92.5446V67.4248H407.351C413.996 48.8549 403.967 20.2197 397.061 4.15663C394.582 -1.60822 388.724 -1.30978 386.459 4.6361C366.937 55.8847 375.592 66.152 376.845 67.3021V91.0473C365.366 68.2209 349.771 62.5502 331.931 61.8477C300.66 61.4395 304.434 94.5186 327.451 91.8279C359.064 88.1323 371.842 105.413 376.845 117.254V175.399L360.199 153.084C346.001 125.985 304.691 139.524 309.783 170.071C294.948 142.035 252.987 157.746 259.66 188.313L261.332 217.217L224.413 173.267C220.256 161.352 217.448 138.672 245.328 120.361C264.692 107.643 246.296 79.88 222.605 100.272C208.855 112.766 200.836 127.264 207.436 153.057L191.272 133.814L191.89 133.296C185.031 114.804 158.922 99.3077 143.295 91.4369C137.686 88.6123 133.391 92.6024 135.482 98.6115C153.504 150.404 166.741 152.713 168.442 152.789L183.722 170.979C160.24 160.864 144.645 166.532 130.526 177.449C106.309 197.215 130.486 220.133 146.386 203.292C168.225 180.163 189.134 185.196 200.586 191.055L238.001 235.596L210.891 229.19C182.607 217.524 159.596 254.503 183.223 274.551C153.781 262.672 131.761 301.563 156.542 320.732L176.423 341.8L119.86 331.838C109.009 325.379 92.2632 309.808 101.838 277.88C108.487 255.704 76.5297 246.248 71.503 277.081C69.1312 295.559 72.0644 311.683 93.8496 327.256L69.0848 322.894L69.225 322.101C52.0712 312.339 22.0989 317.232 5.06281 321.237C-1.05091 322.674 -1.77398 328.489 3.6945 331.749C50.8628 359.873 62.4666 353.114 63.8051 352.088L87.2166 356.212C62.7189 363.541 54.4204 377.896 50.6297 395.325C44.7971 426.016 78.065 428.048 79.4091 404.938C81.2552 373.198 100.511 363.628 113.054 360.762L170.378 370.859L145.488 383.359C116.363 392.592 122.436 435.503 153.375 435.903C123.281 445.814 131.506 489.609 162.761 488.381L191.547 491.755L141.807 520.441C129.339 522.461 106.491 521.285 93.279 490.679C84.1032 469.422 53.5377 482.698 69.5275 509.544C79.4576 525.241 92.3593 535.646 118.934 533.633L97.1558 546.192L96.7522 545.494C77.33 549.031 57.5187 572.024 47.0455 586.03C43.2867 591.057 46.4745 595.975 52.7621 594.962C106.955 586.226 111.528 573.606 111.899 571.945L132.485 560.073C118.435 581.417 121.315 597.743 129.627 613.527C144.908 640.783 171.701 620.979 157.859 602.412C138.848 576.913 147.441 557.217 155.206 546.969L205.615 517.897L194.592 543.454C178.223 569.227 210.488 598.2 234.445 578.641C217.77 605.557 252.252 633.825 275.405 612.815L299.627 596.916L279.983 650.828C271.732 660.382 253.472 674.151 223.657 659.188C202.949 648.796 188.077 678.591 217.602 688.891C235.408 694.432 251.813 694.347 270.95 675.62L262.349 699.225L261.591 698.949C248.988 714.129 248.608 744.463 249.598 761.917C249.953 768.181 255.56 769.902 259.724 765.089C295.616 723.601 290.999 710.996 290.215 709.486L298.345 687.174C301.317 712.545 314.028 723.201 330.553 729.957C359.797 741.024 367.578 708.65 345.027 703.315C314.056 695.987 307.965 675.383 307.318 662.547L327.226 607.909L335.228 634.565C339.274 664.819 382.633 666.296 388.399 635.93C392.944 667.255 437.551 666.769 441.767 635.809L450.092 608.077L469.736 661.989C469.563 674.606 464.435 696.878 431.967 704.56C409.416 709.895 417.197 742.269 446.442 731.201C463.641 724.158 476.14 713.273 478.769 686.781L487.37 710.386L486.611 710.661C486.725 730.382 505.953 753.864 517.943 766.599C522.246 771.169 527.649 768.887 527.742 762.526C528.539 707.7 516.892 701.008 515.319 700.355L507.189 678.042C525.792 695.569 542.388 695.571 559.393 690.136C588.917 679.836 574.045 650.04 553.337 660.433C524.896 674.706 506.971 662.833 498.216 653.415L478.307 598.777L501.59 614.059C524.157 634.637 558.322 607.929 543.2 580.965C566.84 602.042 600.697 573.029 584.004 546.605L572.536 520.015L622.277 548.702C630.263 558.478 640.666 578.832 620.737 605.563C606.896 624.13 633.688 643.934 648.969 616.678C657.525 600.124 660.289 583.97 645.15 561.893L666.928 574.453L666.524 575.151C679.301 590.185 709.141 595.827 726.521 597.884C732.758 598.622 735.429 593.405 731.406 588.473C696.736 545.96 683.508 548.314 681.883 548.823L661.297 536.951C686.827 538.433 699.54 527.778 709.07 512.696C725.059 485.849 694.493 472.573 685.317 493.83C672.715 523.026 651.343 525.44 638.576 523.847L588.167 494.775L615.836 491.532C646.365 492.806 655.351 450.409 626.415 439.463C658.088 440.43 665.354 396.467 635.563 386.943L609.667 373.938L666.231 363.975C678.639 366.336 699.706 375.248 701.641 408.521C702.985 431.631 736.253 429.599 730.42 398.909C726.463 380.766 717.902 366.581 692.241 359.393L717.006 355.031L717.146 355.825C736.608 359.138 763.097 344.3 777.734 334.716C782.988 331.277 781.676 325.566 775.421 324.37ZM558.616 244.576C566.927 241.465 576.871 239.91 584.211 245.664C585.622 246.435 586.796 247.574 587.609 248.961C588.422 250.347 588.843 251.928 588.826 253.534C588.809 255.141 588.355 256.713 587.513 258.082C586.672 259.451 585.473 260.565 584.046 261.307C588.077 243.329 550.781 247.381 557.591 265.545C558.838 268.857 560.727 271.891 563.149 274.473C565.571 277.056 568.478 279.137 571.705 280.597C574.931 282.057 578.414 282.868 581.955 282.984C585.496 283.099 589.024 282.517 592.339 281.271C589.42 283.463 586.974 286.223 585.15 289.383C583.325 292.544 582.159 296.04 581.721 299.662C581.284 303.284 581.583 306.957 582.603 310.461C583.623 313.964 585.341 317.225 587.655 320.048C599.997 335.021 622.158 304.783 604.556 299.281C605.912 298.417 607.478 297.938 609.086 297.894C610.694 297.851 612.283 298.244 613.684 299.033C615.085 299.822 616.246 300.976 617.041 302.372C617.837 303.769 618.237 305.355 618.2 306.961C619.519 316.187 613.199 324.012 606.346 329.646L586.548 347.887L566.492 351.419C568.909 347.051 570.063 342.099 569.828 337.114C569.593 332.13 567.977 327.308 565.16 323.187C562.343 319.066 558.435 315.807 553.873 313.774C549.311 311.74 544.273 311.012 539.321 311.67C542.09 307.681 543.728 303.018 544.063 298.176C544.398 293.333 543.418 288.49 541.225 284.158C539.032 279.826 535.709 276.166 531.606 273.565C527.502 270.964 522.772 269.519 517.914 269.381L531.715 252.952L558.616 244.576ZM551.241 396.074C565.42 399.491 558.32 416.677 542.933 419.559L492.563 394.564L528.284 388.272C511.126 422.537 562.277 415.215 551.241 396.074ZM513.535 499.458C522.197 511.179 505.699 519.786 492.058 512.114L469.557 460.625L500.969 478.741C465.775 493.973 509.673 521.207 513.535 499.458ZM484.398 535.901C483.883 537.422 482.963 538.776 481.738 539.816C480.512 540.857 479.026 541.545 477.44 541.807C475.853 542.07 474.225 541.896 472.729 541.306C471.233 540.716 469.926 539.731 468.947 538.456C491.133 538.401 471.71 490.347 450.581 522.681L437.641 487.169L484.748 518.412C485.938 521.184 486.523 524.178 486.462 527.194C486.402 530.21 485.698 533.178 484.398 535.901ZM418.123 554.445C417.216 568.985 399.04 564.986 393.526 550.35L409.422 496.459L421.827 530.506C385.067 519.578 401.169 568.625 418.123 554.445ZM368.426 530.684C363.913 529.902 359.274 530.291 354.954 531.812L367.893 496.3L383.874 550.481C379.1 565.565 359.893 570.904 358.872 555.689C372.443 568.166 387.578 533.875 368.426 530.684ZM327.892 519.345C306.763 487.369 287.538 535.282 309.649 535.304C299.597 545.861 288.248 531.126 293.443 516.374L340.297 485.298L327.892 519.345ZM238.906 340.961C226.752 332.906 239.308 319.182 254.753 321.731L293.528 362.427L257.807 356.135C285.662 329.799 235.089 319.203 238.906 340.961ZM253.807 296.762C253.771 295.156 254.171 293.57 254.966 292.173C255.762 290.777 256.922 289.623 258.324 288.834C259.725 288.045 261.314 287.652 262.922 287.695C264.53 287.739 266.096 288.218 267.452 289.082C246.623 296.713 281.328 335.234 290.112 297.631L314.43 326.581L259.467 313.315C257.399 311.117 255.824 308.503 254.848 305.648C253.873 302.794 253.518 299.765 253.807 296.762ZM309.736 256.693C305.609 242.72 324.059 240.269 334.251 252.138L337.766 308.209L314.451 280.454C352.738 278.164 320.812 237.576 309.736 256.693ZM364.571 262.042C369.081 261.235 373.307 259.285 376.845 256.379V294.17L343.277 248.717C342.598 232.911 358.819 221.333 364.987 235.281C347.963 228.193 345.481 265.587 364.571 262.042ZM418.221 237.62C424.052 224.266 439.763 234.234 439.932 249.871L406.543 295.081V258.849C437.345 281.678 439.009 230.087 418.221 237.62ZM496.697 313.433C509.04 328.406 531.201 298.167 513.599 292.665C526.659 286.179 532.279 303.903 522.347 315.99L467.678 329.185L490.992 301.43C491.853 305.846 493.815 309.975 496.697 313.433ZM544.303 343.3C548.102 321.465 497.353 332.228 525.562 358.628L488.304 365.19L527.287 324.275C542.752 320.863 556.983 334.809 544.303 343.3ZM416.906 430.261L452.511 450.795L476.617 501.297L430.932 468.756L416.906 430.261ZM347.029 466.823L301.425 499.306L325.575 448.714L361.091 428.231L347.029 466.823ZM353.4 372.972L312.911 365.84L272.967 326.62L327.039 341.59L353.4 372.972ZM455.026 344.246L509.001 329.302L468.986 368.593L428.599 375.706L455.026 344.246ZM347.178 402L311.573 422.534L255.735 418.136L306.79 394.886L347.178 402ZM432.691 405.109L473.18 397.978L524.144 421.187L468.207 425.592L432.691 405.109ZM474.325 256.693C463.185 237.528 431.234 278.358 469.832 280.469L445.513 309.419L449.047 253.046C458.698 240.502 478.574 242.048 474.325 256.693ZM406.543 314.742L438.274 268.637L432.904 324.429L406.543 355.811V314.742ZM350.418 323.27L345.057 267.578L376.845 313.765V354.73L350.418 323.27ZM227.355 392.922C216.31 412.142 267.684 419.366 250.215 384.921L287.473 391.483L236.832 416.613C221.132 414.536 212.533 396.568 227.355 392.922ZM261.865 437.252C255.393 418.965 224.214 439.808 238.871 450.992C224.378 452.625 225.165 434.051 238.637 426.085L294.527 432.364L263.115 450.48C263.82 446.036 263.389 441.486 261.865 437.252ZM263.46 498.213C267.366 520.028 311.37 492.577 275.823 477.407L308.587 458.511L285.964 510.277C272.519 518.725 254.504 510.631 263.46 498.213ZM374.602 477.887L388.628 439.392L402.69 477.984L388.659 532.149L374.602 477.887ZM542.18 454.576C559.139 440.289 513.338 415.949 517.959 454.285L485.195 435.389L541.386 429.077C555.429 436.392 557.356 456.214 542.18 454.576ZM421.761 171.876C426.125 164.157 432.742 156.58 442.067 156.275C443.644 155.96 445.278 156.079 446.792 156.619C448.307 157.159 449.647 158.1 450.668 159.342C451.689 160.583 452.353 162.078 452.589 163.668C452.825 165.257 452.624 166.88 452.008 168.365C443.527 152.004 417.564 179.056 434.469 188.598C440.704 192.094 448.069 192.99 454.961 191.088C461.853 189.186 467.714 184.642 471.268 178.444C470.443 181.987 470.345 185.66 470.979 189.241C471.613 192.823 472.967 196.24 474.957 199.285C476.947 202.331 479.534 204.943 482.561 206.964C485.588 208.985 488.993 210.374 492.572 211.046C511.661 214.591 509.18 177.198 492.155 184.285C492.639 182.753 493.53 181.381 494.733 180.315C495.937 179.249 497.407 178.53 498.988 178.234C500.569 177.939 502.201 178.078 503.709 178.637C505.217 179.196 506.544 180.153 507.549 181.407C514.496 187.628 514.69 197.681 513.066 206.397L509.638 233.081L496.567 248.641C495.6 243.746 493.293 239.215 489.902 235.551C486.51 231.888 482.167 229.236 477.357 227.891C472.547 226.546 467.458 226.561 462.655 227.933C457.853 229.305 453.525 231.98 450.155 235.662C449.709 230.828 447.964 226.204 445.104 222.279C442.244 218.354 438.376 215.274 433.908 213.365C429.439 211.456 424.537 210.788 419.721 211.433C414.904 212.077 410.351 214.01 406.543 217.027V195.566L421.761 171.876ZM270.143 204.058C268.518 195.342 268.712 185.289 275.659 179.068C276.664 177.814 277.992 176.856 279.5 176.297C281.008 175.738 282.639 175.599 284.22 175.895C285.801 176.19 287.272 176.909 288.476 177.975C289.679 179.041 290.57 180.414 291.054 181.946C274.029 174.858 271.547 212.252 290.637 208.707C294.119 208.055 297.438 206.723 300.405 204.79C303.372 202.856 305.928 200.357 307.928 197.436C309.928 194.516 311.332 191.23 312.061 187.767C312.79 184.304 312.828 180.732 312.175 177.254C313.829 180.507 316.125 183.392 318.924 185.736C321.723 188.08 324.968 189.834 328.463 190.894C331.958 191.953 335.631 192.296 339.262 191.901C342.893 191.507 346.407 190.383 349.592 188.597C366.497 179.056 340.534 152.004 332.053 168.364C331.437 166.88 331.236 165.257 331.472 163.668C331.709 162.078 332.373 160.583 333.394 159.341C334.414 158.1 335.754 157.159 337.269 156.619C338.783 156.079 340.417 155.96 341.994 156.275C351.319 156.58 357.936 164.156 362.3 171.876L376.845 194.519V214.863C372.959 211.727 368.277 209.731 363.322 209.097C358.367 208.463 353.332 209.215 348.78 211.271C344.228 213.326 340.337 216.604 337.54 220.739C334.743 224.874 333.15 229.703 332.939 234.689C329.487 231.273 325.175 228.851 320.459 227.681C315.743 226.51 310.797 226.634 306.146 228.039C301.494 229.444 297.309 232.078 294.032 235.662C290.755 239.247 288.509 243.649 287.53 248.404L273.729 231.976L270.143 204.058ZM174.705 326.062C167.852 320.428 161.531 312.603 162.85 303.377C162.813 301.771 163.214 300.185 164.009 298.788C164.805 297.392 165.965 296.237 167.366 295.449C168.768 294.66 170.357 294.267 171.965 294.31C173.573 294.354 175.138 294.833 176.495 295.697C158.892 301.199 181.054 331.437 193.397 316.464C197.927 310.938 200.088 303.848 199.41 296.738C198.732 289.628 195.269 283.073 189.776 278.501C193.126 279.927 196.73 280.661 200.371 280.659C204.012 280.658 207.615 279.92 210.964 278.491C214.312 277.062 217.337 274.971 219.855 272.344C222.373 269.717 224.334 266.608 225.618 263.205C232.428 245.041 195.131 240.989 199.162 258.967C197.735 258.226 196.537 257.111 195.695 255.742C194.853 254.373 194.4 252.801 194.383 251.195C194.366 249.588 194.787 248.007 195.6 246.621C196.412 245.235 197.587 244.095 198.998 243.324C206.338 237.57 216.282 239.125 224.593 242.237L250.305 250.243L263.376 265.802C258.382 265.904 253.514 267.387 249.313 270.087C245.113 272.787 241.745 276.598 239.583 281.097C237.422 285.595 236.552 290.604 237.071 295.567C237.589 300.529 239.476 305.251 242.521 309.206C237.678 308.805 232.816 309.718 228.45 311.85C224.083 313.982 220.375 317.253 217.717 321.317C215.058 325.381 213.549 330.087 213.348 334.938C213.147 339.788 214.262 344.603 216.575 348.872L195.417 345.146L174.705 326.062ZM180.103 480.802C171.229 480.886 161.351 478.95 156.425 471.036C155.363 469.829 154.649 468.357 154.36 466.776C154.071 465.196 154.217 463.566 154.783 462.062C155.349 460.559 156.313 459.237 157.573 458.238C158.833 457.239 160.34 456.601 161.935 456.391C151.992 471.908 188.426 480.843 188.246 461.448C188.162 454.357 185.296 447.582 180.264 442.579C175.233 437.577 168.436 434.747 161.337 434.697C164.787 433.595 167.98 431.813 170.728 429.457C173.476 427.101 175.724 424.219 177.339 420.981C178.953 417.743 179.902 414.214 180.128 410.604C180.355 406.993 179.855 403.374 178.657 399.96C172.186 381.673 141.008 402.517 155.664 413.7C154.094 414.049 152.459 413.964 150.933 413.456C149.407 412.948 148.048 412.035 147.002 410.815C145.955 409.595 145.26 408.114 144.991 406.53C144.721 404.946 144.888 403.319 145.473 401.822C147.392 392.702 156.011 387.508 164.379 384.555L189.228 374.179L209.253 377.706C205.492 380.99 202.718 385.252 201.238 390.018C199.758 394.783 199.63 399.865 200.869 404.699C202.108 409.532 204.665 413.928 208.255 417.397C211.846 420.865 216.329 423.271 221.207 424.346C217.239 427.149 214.104 430.97 212.131 435.407C210.158 439.843 209.421 444.729 209.999 449.549C210.576 454.368 212.446 458.943 215.411 462.789C218.376 466.635 222.326 469.609 226.844 471.398L208.25 482.121L180.103 480.802ZM283.813 595.873C277.069 601.636 268.256 606.495 259.39 603.595C257.8 603.352 256.306 602.683 255.067 601.658C253.829 600.633 252.892 599.291 252.358 597.776C251.824 596.261 251.712 594.629 252.034 593.055C252.356 591.481 253.1 590.024 254.187 588.84C256.555 607.111 290.215 590.56 277.597 575.818C272.969 570.44 266.414 567.091 259.341 566.49C252.267 565.888 245.24 568.084 239.77 572.604C241.702 569.544 243.002 566.129 243.591 562.56C244.18 558.991 244.048 555.34 243.201 551.823C242.354 548.305 240.81 544.993 238.66 542.082C236.51 539.171 233.798 536.72 230.684 534.873C213.96 525.02 203.488 561.006 221.913 560.162C220.934 561.437 219.627 562.423 218.131 563.013C216.635 563.603 215.007 563.776 213.42 563.514C211.833 563.252 210.348 562.564 209.122 561.523C207.897 560.483 206.977 559.129 206.462 557.607C202.063 549.388 205.323 539.876 209.834 532.24L222.192 508.336L239.802 498.18C239.034 503.111 239.651 508.157 241.584 512.758C243.517 517.359 246.689 521.334 250.749 524.242C254.808 527.149 259.595 528.874 264.578 529.226C269.56 529.577 274.543 528.541 278.971 526.233C277.736 530.928 277.793 535.869 279.136 540.534C280.479 545.199 283.059 549.415 286.603 552.737C290.147 556.058 294.523 558.362 299.269 559.404C304.015 560.447 308.955 560.189 313.567 558.658L306.224 578.811L283.813 595.873ZM437.306 617.432C435.848 626.177 432.225 635.558 423.567 639.03C422.193 639.865 420.617 640.311 419.009 640.321C417.4 640.332 415.819 639.905 414.435 639.087C413.051 638.269 411.915 637.091 411.149 635.678C410.383 634.266 410.015 632.671 410.086 631.066C423.657 643.543 438.792 609.252 419.64 606.061C412.634 604.912 405.457 606.555 399.652 610.637C393.846 614.718 389.876 620.913 388.594 627.888C388.106 624.303 386.904 620.852 385.059 617.74C383.213 614.627 380.763 611.915 377.85 609.764C374.938 607.614 371.624 606.068 368.104 605.218C364.584 604.368 360.929 604.232 357.355 604.817C338.203 608.007 353.338 642.298 366.909 629.822C366.98 631.427 366.612 633.021 365.846 634.433C365.08 635.846 363.944 637.024 362.56 637.842C361.175 638.66 359.595 639.087 357.986 639.077C356.378 639.067 354.803 638.62 353.429 637.785C344.771 634.313 341.146 624.933 339.689 616.187L333.773 589.941L340.728 570.854C343.313 575.124 347.033 578.593 351.474 580.877C355.915 583.161 360.904 584.169 365.884 583.789C370.865 583.41 375.642 581.658 379.685 578.728C383.728 575.798 386.879 571.805 388.785 567.193C390.86 571.583 394.083 575.332 398.114 578.043C402.145 580.754 406.834 582.327 411.686 582.596C416.538 582.865 421.373 581.82 425.679 579.571C429.986 577.322 433.605 573.953 436.153 569.819L443.496 589.972L437.306 617.432ZM568.762 535.392C573.273 543.027 576.533 552.54 572.135 560.759C571.62 562.281 570.7 563.634 569.475 564.675C568.249 565.715 566.763 566.403 565.177 566.666C563.59 566.928 561.962 566.755 560.466 566.165C558.97 565.574 557.662 564.589 556.684 563.314C575.108 564.158 564.637 528.171 547.911 538.025C541.806 541.643 537.365 547.509 535.544 554.363C533.723 561.217 534.667 568.512 538.174 574.678C535.493 572.245 532.352 570.374 528.935 569.174C525.519 567.975 521.896 567.472 518.281 567.694C514.667 567.917 511.134 568.86 507.89 570.469C504.647 572.079 501.759 574.321 499.398 577.064C486.779 591.805 520.439 608.355 522.807 590.084C523.894 591.268 524.639 592.725 524.961 594.299C525.283 595.873 525.171 597.505 524.637 599.021C524.103 600.536 523.166 601.878 521.928 602.903C520.689 603.928 519.195 604.597 517.605 604.84C508.738 607.74 499.926 602.881 493.182 597.117L471.761 580.81L464.806 561.723C469.534 563.334 474.616 563.603 479.488 562.501C484.359 561.399 488.83 558.968 492.401 555.48C495.972 551.991 498.504 547.581 499.716 542.741C500.928 537.9 500.772 532.819 499.265 528.062C503.679 530.093 508.56 530.895 513.392 530.383C518.225 529.872 522.83 528.066 526.72 525.157C530.61 522.247 533.641 518.343 535.492 513.855C537.344 509.367 537.948 504.462 537.24 499.66L555.833 510.383L568.762 535.392ZM616.672 388.139C625.04 391.092 633.658 396.286 635.578 405.406C636.163 406.903 636.33 408.53 636.06 410.114C635.791 411.698 635.095 413.179 634.049 414.399C633.002 415.619 631.643 416.532 630.118 417.04C628.592 417.548 626.957 417.633 625.386 417.284C640.043 406.101 608.864 385.257 602.393 403.544C600.044 410.236 600.417 417.581 603.433 424.001C606.449 430.421 611.866 435.402 618.519 437.875C614.901 437.732 611.29 438.316 607.901 439.591C604.512 440.865 601.413 442.806 598.787 445.297C596.161 447.788 594.062 450.78 592.613 454.095C591.164 457.411 590.395 460.982 590.351 464.6C590.17 483.994 626.605 475.06 616.661 459.543C618.256 459.753 619.764 460.391 621.024 461.39C622.284 462.388 623.248 463.71 623.814 465.214C624.38 466.718 624.526 468.347 624.237 469.928C623.948 471.508 623.234 472.981 622.172 474.187C617.245 482.101 607.368 484.038 598.493 483.953L571.59 485.214L553.981 475.059C558.639 473.257 562.705 470.201 565.728 466.228C568.75 462.256 570.61 457.524 571.101 452.558C571.592 447.593 570.694 442.589 568.508 438.103C566.321 433.617 562.932 429.824 558.716 427.147C563.404 425.869 567.66 423.35 571.033 419.855C574.406 416.36 576.771 412.02 577.878 407.294C578.986 402.567 578.795 397.63 577.326 393.003C575.857 388.376 573.163 384.231 569.531 381.007L590.674 377.283L616.672 388.139Z" fill="white"/>
</g>
<path d="M918.88 161.8H1222.68V241.16H1013.12V347.8H1211.52V425.92H1013.12V602H918.88V161.8ZM1374.9 602C1317.03 602 1288.1 573.067 1288.1 515.2V161.8H1381.1V505.28C1381.1 514.787 1383.17 521.813 1387.3 526.36C1391.85 530.493 1398.67 532.56 1407.76 532.56H1430.08V602H1374.9ZM1595.81 609.44C1561.51 609.44 1534.64 598.487 1515.21 576.58C1496.2 554.673 1486.69 523.673 1486.69 483.58V269.68H1579.69V461.88C1579.69 487.507 1583.62 506.313 1591.47 518.3C1599.33 529.873 1611.73 535.66 1628.67 535.66C1648.1 535.66 1662.98 529.253 1673.31 516.44C1683.65 503.213 1688.81 483.58 1688.81 457.54V269.68H1781.81V602H1696.87L1695.63 548.68C1678.27 589.187 1645 609.44 1595.81 609.44ZM1863.29 269.68H1951.34L1953.2 336.64C1959.81 313.08 1969.52 296.133 1982.34 285.8C1995.15 275.053 2011.89 269.68 2032.56 269.68H2062.94V346.56H2032.56C2006.1 346.56 1986.68 351.933 1974.28 362.68C1962.29 373.427 1956.3 390.993 1956.3 415.38V602H1863.29V269.68Z" fill="white"/>
<defs>
<clipPath id="clip0_6018_37983">
<rect width="781" height="769" fill="white"/>
</clipPath>
</defs>
</svg>
